<svg width="73" height="73" viewBox="0 0 73 73" fill="none" xmlns="http://www.w3.org/2000/svg">
<rect width="73" height="73" rx="10.95" fill="#1A1A1A"/>
<path d="M19.7156 53.2884L31.8989 41.1051M47.241 35.6874L43.594 46.6282C43.5358 46.8036 43.4362 46.9623 43.3035 47.091C43.1709 47.2196 43.0092 47.3144 42.8321 47.3672L20.4757 54.0121C20.2743 54.0719 20.0603 54.0753 19.8571 54.022C19.6538 53.9686 19.4691 53.8606 19.3231 53.7096C19.177 53.5585 19.0751 53.3703 19.0286 53.1655C18.982 52.9606 18.9925 52.7469 19.059 52.5475L26.3184 30.7731C26.3705 30.6168 26.4555 30.4734 26.5678 30.3529C26.6801 30.2323 26.8171 30.1373 26.9693 30.0743L37.2822 25.8282C37.4919 25.7416 37.7225 25.719 37.945 25.7633C38.1674 25.8076 38.3718 25.9168 38.5323 26.0771L46.9634 34.5119C47.1142 34.6628 47.2201 34.8526 47.2691 35.0602C47.3182 35.2678 47.3084 35.485 47.241 35.6874Z" stroke="#00AC8E" stroke-width="2.87161" stroke-linecap="round" stroke-linejoin="round"/>
<path d="M47.4642 35.0141L52.8782 29.5983C53.596 28.8803 53.9992 27.9066 53.9992 26.8913C53.9992 25.8761 53.596 24.9024 52.8782 24.1843L48.8196 20.122C48.4641 19.7663 48.0419 19.4841 47.5773 19.2916C47.1127 19.0991 46.6147 19 46.1117 19C45.6088 19 45.1108 19.0991 44.6461 19.2916C44.1815 19.4841 43.7594 19.7663 43.4038 20.122L37.9899 25.5378M35.9568 37.0434C35.69 36.7768 35.3734 36.5653 35.0249 36.4211C34.6765 36.2768 34.303 36.2026 33.9259 36.2027C33.5487 36.2028 33.1753 36.2772 32.8269 36.4216C32.4785 36.566 32.162 36.7776 31.8954 37.0444C31.6287 37.3111 31.4173 37.6277 31.273 37.9762C31.1288 38.3247 31.0546 38.6981 31.0547 39.0753C31.0548 39.4524 31.1291 39.8258 31.2736 40.1742C31.418 40.5226 31.6296 40.8392 31.8963 41.1058C32.435 41.6442 33.1656 41.9466 33.9272 41.9464C34.6889 41.9463 35.4193 41.6435 35.9577 41.1048C36.4962 40.5661 36.7986 39.8356 36.7984 39.0739C36.7982 38.3122 36.4955 37.5819 35.9568 37.0434Z" stroke="#00AC8E" stroke-width="2.87161" stroke-linecap="round" stroke-linejoin="round"/>
</svg>
